<svg width="512" height="512" viewBox="0 0 512 512" fill="none" xmlns="http://www.w3.org/2000/svg">
<rect width="512" height="512" fill="#F8F7FC"/>
<path d="M149.985 173.171L179.003 218.032C180.44 220.253 182.547 221.959 185.019 222.902L231.189 240.52C232.802 241.136 232.68 243.458 231.01 243.901L203.99 251.063C203.397 251.22 203.137 251.917 203.483 252.424L274.36 356.238C274.87 356.985 275.632 357.524 276.507 357.756L321.424 369.655" stroke="#201951" stroke-width="14.5078" stroke-linecap="round"/>
<path d="M321.548 369.131L334.338 329.801C334.621 328.93 334.578 327.986 334.215 327.144L271.412 181.412C271.16 180.827 270.393 180.689 269.953 181.148L251.208 200.705C250.621 201.318 249.591 200.838 249.682 199.994L254.505 155.383C254.955 151.218 253.843 147.034 251.383 143.644L243.103 132.23C231.305 115.966 214.346 104.176 194.991 98.7813L159.519 88.8947C158.938 88.7328 158.334 89.0593 158.15 89.6336L151.138 111.597C146.805 124.805 135.727 154.38 151.965 176.042" stroke="#201951" stroke-width="14.5078"/>
<path d="M266.989 279.203C266.285 277.908 266.763 276.288 268.058 275.584L274.566 272.043C275.881 271.328 277.527 271.834 278.213 273.165L356.998 426.047L346.867 426.047L266.989 279.203Z" fill="#201951"/>
</svg>
